<?xml version="1.0" encoding="UTF-8"?>
<svg width="56" height="56" viewBox="0 0 56 56" fill="none" xmlns="http://www.w3.org/2000/svg">
  <path d="M28 56C43.464 56 56 43.464 56 28C56 12.536 43.464 0 28 0C12.536 0 0 12.536 0 28C0 43.464 12.536 56 28 56Z" fill="#0088CC"></path>
  <path fill-rule="evenodd" clip-rule="evenodd" d="M20.199 18.4844H35.9034C36.459 18.4844 37.0142 18.566 37.5944 18.8365C38.2899 19.1606 38.6587 19.6717 38.9171 20.0496C38.9372 20.079 38.956 20.1093 38.9734 20.1403C39.2772 20.6811 39.4338 21.265 39.4338 21.8931C39.4338 22.4899 39.2918 23.1401 38.9734 23.7068C38.9704 23.7122 38.9673 23.7176 38.9642 23.723L29.0424 40.7665C28.8236 41.1423 28.4209 41.3729 27.986 41.3714C27.5511 41.3698 27.15 41.1364 26.9339 40.759L17.1943 23.7518C17.1915 23.7473 17.1887 23.7426 17.1859 23.738C16.963 23.3707 16.6183 22.8027 16.558 22.0696C16.5026 21.3956 16.6541 20.7202 16.9928 20.1346C17.3315 19.5489 17.8414 19.0807 18.4547 18.7941C19.1123 18.4868 19.7787 18.4844 20.199 18.4844ZM26.7729 20.9192H20.199C19.7671 20.9192 19.6013 20.9458 19.4854 21C19.3251 21.0748 19.1905 21.1978 19.1005 21.3535C19.0105 21.5092 18.9698 21.6896 18.9846 21.8701C18.9931 21.9737 19.0353 22.0921 19.2842 22.5026C19.2894 22.5112 19.2945 22.5199 19.2995 22.5286L26.7729 35.5785V20.9192ZM29.2077 20.9192V35.643L36.8542 22.5079C36.9405 22.3511 36.999 22.1245 36.999 21.8931C36.999 21.7054 36.9601 21.5424 36.8731 21.3743C36.7818 21.2431 36.7262 21.1736 36.6797 21.126C36.6398 21.0853 36.6091 21.0635 36.5657 21.0433C36.3849 20.959 36.1999 20.9192 35.9034 20.9192H29.2077Z" fill="white"></path>
</svg> 